<?xml version="1.0" encoding="utf-8"?>
<!-- Generator: Adobe Illustrator 15.1.0, SVG Export Plug-In . SVG Version: 6.00 Build 0)  -->
<!DOCTYPE svg PUBLIC "-//W3C//DTD SVG 1.1//EN" "http://www.w3.org/Graphics/SVG/1.1/DTD/svg11.dtd">
<svg version="1.1" id="Layer_1" xmlns="http://www.w3.org/2000/svg" xmlns:xlink="http://www.w3.org/1999/xlink" x="0px" y="0px"
	 width="330px" height="92px" viewBox="0 0 330 92" enable-background="new 0 0 330 92" xml:space="preserve">
<circle fill="#FB6200" cx="-487.5" cy="33.6" r="3"/>
<path fill="#FB6200" d="M-551.3,59l-1.7-5.6h-9.9l-1.7,5.6h-5.3l8.5-26.8h7.1L-546,59H-551.3z M-558,36.4l-3.8,12.7h7.4L-558,36.4z"
	/>
<path fill="#FB6200" d="M-526.7,45.8v6.7c0,4.6-2.2,6.9-6.5,6.9c-1.7,0-3.5-0.2-5.2-0.5v11h-4.9V39.4h3.9l0.5,1.7
	c1.9-1.4,4-2.1,6.2-2.1c2,0,3.5,0.6,4.5,1.7C-527.2,41.9-526.7,43.5-526.7,45.8z M-538.4,44.9v9.8c1.6,0.3,3.1,0.5,4.3,0.5
	c0.9,0,1.5-0.2,1.9-0.6c0.4-0.4,0.6-1.1,0.6-2v-6.9c0-0.8-0.2-1.5-0.5-1.9c-0.4-0.4-1-0.6-1.9-0.6c-0.8,0-1.6,0.2-2.4,0.5
	C-537.2,44-537.8,44.4-538.4,44.9z"/>
<path fill="#FB6200" d="M-506.4,45.8v6.7c0,4.6-2.2,6.9-6.5,6.9c-1.7,0-3.5-0.2-5.2-0.5v11h-4.9V39.4h3.9l0.5,1.7
	c1.9-1.4,4-2.1,6.2-2.1c2,0,3.5,0.6,4.5,1.7C-506.9,41.9-506.4,43.5-506.4,45.8z M-518.1,44.9v9.8c1.6,0.3,3.1,0.5,4.3,0.5
	c0.9,0,1.5-0.2,1.9-0.6c0.4-0.4,0.6-1.1,0.6-2v-6.9c0-0.8-0.2-1.5-0.5-1.9c-0.4-0.4-1-0.6-1.9-0.6c-0.8,0-1.6,0.2-2.4,0.5
	C-516.9,44-517.5,44.4-518.1,44.9z"/>
<path fill="#FB6200" d="M-493,39l0.5,4.5c-1.6,0.7-3.3,1.7-5.2,2.8V59h-4.9V39.4h4.1l0.3,2.2c0.7-0.5,1.5-1,2.5-1.5
	C-494.7,39.6-493.8,39.2-493,39z"/>
<path fill="#FB6200" d="M-484.9,59h-4.9V39.4h4.9V59z"/>
<path fill="#FB6200" d="M-475.5,59h-4.9V31.4l4.9-0.7V59z M-469.3,39.4h5.5l-5.8,9.7l6,9.9h-5.4l-5.9-9.9L-469.3,39.4z"/>
<path fill="#FB6200" d="M-430.6,39l0.5,4.5c-1.6,0.7-3.3,1.7-5.2,2.8V59h-4.9V39.4h4.1l0.3,2.2c0.7-0.5,1.5-1,2.5-1.5
	C-432.3,39.6-431.4,39.2-430.6,39z"/>
<path fill="#FB6200" d="M-417,54.9l0.6,3.8c-0.5,0.2-1.2,0.4-2,0.5s-1.6,0.2-2.3,0.2c-3.6,0-5.4-1.7-5.4-5.2V43.3h-2.9v-3.9h2.9
	v-4.9l4.9-0.7v5.6h5l-0.3,3.9h-4.7v10.3c0,1.2,0.6,1.7,1.8,1.7C-418.8,55.3-418,55.2-417,54.9z"/>
<g id="g16523" transform="matrix(2.7633305e-2,0,0,-2.7633305e-2,46.06077,38.939293)">
	<path id="path16525" fill="#3F3F3F" d="M-17885.7-35.6h124.8l-75.6-339.8c-14.7-64.6-24.7-104.2-30.1-118.9
		c19.6-90,47.9-135.1,85.1-135.1c44.1,0,66.8,30.3,68.3,91h26.4c-1.5-56.8-11.9-102.6-31.2-137.6c-19.3-35-44.7-52.5-76-52.5
		c-25.9,0-45.3,10.5-58,31.6c-12.8,21-26.4,64.1-41.1,129.2c-50.9-107.2-134.1-160.7-249.6-160.7c-78.8,0-141.4,30.7-187.9,92.1
		c-46.5,61.4-69.8,149.4-69.8,263.9c0,112.6,25.4,200.1,76.3,262.8c50.9,62.6,112,94,183.5,94c50.4,0,91.7-17.9,124-53.6
		c32.3-35.7,60.9-94,85.9-174.7L-17885.7-35.6z M-17950.3-323.4c-23,78.8-48.7,140.3-77.1,184.6c-28.3,44.3-62.4,66.4-102,66.4
		c-89.6,0-134.3-104.7-134.3-314.1c0-198.7,42.9-298,128.5-298c74.4,0,129.4,87.6,165.1,262.8L-17950.3-323.4z"/>
</g>
<text transform="matrix(1 0 0 1 -516.501 69.8945)" fill="#3F3F3F" font-family="'Roboto-Regular'" font-size="7.5881" letter-spacing="1">digital solutions</text>
<g>
	<circle fill="#FB6200" cx="-161.6" cy="15.2" r="4.8"/>
	<path fill="#FB6200" d="M-262.5,55.4l-2.7-8.8h-15.7l-2.7,8.8h-8.4l13.4-42.4h11.2l13.3,42.4H-262.5z M-273,19.6l-6,20h11.7
		L-273,19.6z"/>
	<path fill="#FB6200" d="M-223.6,34.5v10.5c0,7.3-3.4,10.9-10.2,10.9c-2.7,0-5.5-0.3-8.3-0.8v17.4h-7.8V24.4h6.2l0.8,2.6
		c3-2.2,6.3-3.3,9.8-3.3c3.1,0,5.5,0.9,7.1,2.7C-224.4,28.3-223.6,31-223.6,34.5z M-242,33.2v15.4c2.5,0.5,4.8,0.8,6.9,0.8
		c1.4,0,2.4-0.3,3-1c0.6-0.7,0.9-1.7,0.9-3.1V34.3c0-1.3-0.3-2.3-0.9-3c-0.6-0.6-1.6-1-2.9-1c-1.2,0-2.5,0.3-3.7,0.8
		C-240.1,31.7-241.2,32.4-242,33.2z"/>
	<path fill="#FB6200" d="M-191.5,34.5v10.5c0,7.3-3.4,10.9-10.2,10.9c-2.7,0-5.5-0.3-8.3-0.8v17.4h-7.8V24.4h6.2l0.8,2.6
		c3-2.2,6.3-3.3,9.8-3.3c3.1,0,5.5,0.9,7.1,2.7C-192.3,28.3-191.5,31-191.5,34.5z M-210,33.2v15.4c2.5,0.5,4.8,0.8,6.9,0.8
		c1.4,0,2.4-0.3,3-1c0.6-0.7,0.9-1.7,0.9-3.1V34.3c0-1.3-0.3-2.3-0.9-3c-0.6-0.6-1.6-1-2.9-1c-1.2,0-2.5,0.3-3.7,0.8
		C-208,31.7-209.1,32.4-210,33.2z"/>
	<path fill="#FB6200" d="M-170.4,23.8l0.7,7.1c-2.5,1.1-5.2,2.6-8.2,4.5v20h-7.8v-31h6.5l0.5,3.4c1.1-0.7,2.4-1.5,4-2.3
		C-173.1,24.7-171.7,24.1-170.4,23.8z"/>
	<path fill="#FB6200" d="M-157.6,55.4h-7.8v-31h7.8V55.4z"/>
	<path fill="#FB6200" d="M-142.8,55.4h-7.8V11.7l7.8-1.1V55.4z M-132.9,24.4h8.6l-9.1,15.3l9.5,15.6h-8.5l-9.3-15.6L-132.9,24.4z"/>
	<path fill="#FB6200" d="M-71.8,23.8l0.7,7.1c-2.5,1.1-5.2,2.6-8.2,4.5v20h-7.8v-31h6.5l0.5,3.4c1.1-0.7,2.4-1.5,4-2.3
		C-74.5,24.7-73.1,24.1-71.8,23.8z"/>
	<path fill="#FB6200" d="M-50.3,48.9l0.9,5.9c-0.8,0.3-1.8,0.6-3.2,0.8c-1.3,0.2-2.5,0.3-3.6,0.3c-5.7,0-8.5-2.7-8.5-8.2V30.6h-4.6
		v-6.2h4.6v-7.7l7.8-1.1v8.8h7.9l-0.5,6.2H-57v16.2c0,1.8,0.9,2.8,2.8,2.8C-53.2,49.5-51.9,49.3-50.3,48.9z"/>
	<g id="g16523_1_" transform="matrix(2.7633305e-2,0,0,-2.7633305e-2,46.06077,38.939293)">
		<path id="path16525_1_" fill="#3F3F3F" d="M-5270.2,495.4h197.1l-119.3-536.7c-23.3-102-39.2-164.6-47.6-187.7
			c30.9-142.2,75.7-213.4,134.5-213.4c69.6,0,105.4,47.9,107.8,143.8h41.8c-2.4-89.7-18.8-162.1-49.3-217.3
			c-30.5-55.3-70.5-82.9-120-82.9c-40.9,0-71.5,16.6-91.5,49.8c-20.1,33.2-41.7,101.3-65,204c-80.3-169.2-211.7-253.8-394.1-253.8
			c-124.5,0-223.4,48.5-296.7,145.5c-73.5,97-110.2,235.9-110.2,416.7c0,177.8,40.2,316.1,120.5,415.1
			c80.5,99,177,148.4,289.9,148.4c79.6,0,144.9-28.3,195.8-84.7c51.1-56.4,96.2-148.4,135.7-275.9L-5270.2,495.4z M-5372.1,41
			c-36.3,124.4-76.9,221.6-121.8,291.6c-44.8,70-98.5,104.9-161.2,104.9c-141.4,0-212.1-165.4-212.1-496.2
			c0-313.8,67.7-470.6,202.9-470.6c117.4,0,204.4,138.3,260.8,415L-5372.1,41z"/>
	</g>
	<g>
		<path fill="#3F3F3F" d="M-206.5,72.6v-8.5h2.7c1.1,0,2,0.3,2.7,1c0.7,0.7,1,1.6,1,2.7v1.2c0,1.1-0.3,2-1,2.7c-0.7,0.7-1.6,1-2.7,1
			H-206.5z M-205.3,65v6.7h1.5c0.8,0,1.4-0.3,1.9-0.8c0.5-0.5,0.7-1.2,0.7-2v-1.2c0-0.8-0.2-1.5-0.7-2c-0.5-0.5-1.1-0.8-1.9-0.8
			H-205.3z"/>
		<path fill="#3F3F3F" d="M-194,72.6h-1.2v-8.5h1.2V72.6z"/>
		<path fill="#3F3F3F" d="M-182.7,71.4c-0.2,0.3-0.6,0.6-1.1,0.9c-0.5,0.3-1.2,0.4-2,0.4c-1,0-1.8-0.3-2.4-1s-1-1.5-1-2.5v-1.8
			c0-1,0.3-1.9,0.9-2.5s1.4-1,2.4-1c0.9,0,1.7,0.3,2.2,0.8c0.5,0.5,0.8,1.1,0.8,1.9l0,0h-1.1c0-0.5-0.2-1-0.5-1.3
			c-0.3-0.3-0.8-0.5-1.4-0.5c-0.7,0-1.2,0.2-1.6,0.7c-0.4,0.5-0.6,1.1-0.6,1.9v1.8c0,0.8,0.2,1.4,0.6,1.9c0.4,0.5,1,0.7,1.6,0.7
			c0.5,0,0.9-0.1,1.2-0.2c0.3-0.1,0.5-0.3,0.7-0.5v-1.9h-1.9v-0.9h3.1V71.4z"/>
		<path fill="#3F3F3F" d="M-176.4,72.6h-1.2v-8.5h1.2V72.6z"/>
		<path fill="#3F3F3F" d="M-165.5,65h-2.8v7.6h-1.2V65h-2.8v-0.9h6.7V65z"/>
		<path fill="#3F3F3F" d="M-157.3,70.4h-3.2l-0.8,2.2h-1.2l3.1-8.5h1l3,8.5h-1.2L-157.3,70.4z M-160.1,69.4h2.5l-1.2-3.7h0
			L-160.1,69.4z"/>
		<path fill="#3F3F3F" d="M-149.9,71.7h4.2v0.9h-5.3v-8.5h1.2V71.7z"/>
		<path fill="#3F3F3F" d="M-130.8,70.4c0-0.4-0.1-0.7-0.4-1c-0.3-0.3-0.8-0.5-1.5-0.7c-0.9-0.2-1.5-0.5-2-0.9
			c-0.5-0.4-0.7-0.9-0.7-1.6c0-0.7,0.3-1.2,0.8-1.7c0.5-0.4,1.2-0.7,2-0.7c0.9,0,1.6,0.3,2.1,0.8c0.5,0.5,0.8,1.1,0.8,1.8l0,0h-1.1
			c0-0.5-0.2-0.9-0.5-1.2c-0.3-0.3-0.8-0.5-1.3-0.5c-0.5,0-1,0.1-1.2,0.4c-0.3,0.3-0.4,0.6-0.4,1c0,0.4,0.2,0.7,0.5,0.9
			c0.3,0.2,0.8,0.5,1.5,0.7c0.9,0.2,1.5,0.6,2,1s0.7,1,0.7,1.6c0,0.7-0.3,1.2-0.8,1.7c-0.5,0.4-1.2,0.6-2.1,0.6
			c-0.8,0-1.5-0.2-2.2-0.7c-0.6-0.5-0.9-1.1-0.9-1.8l0,0h1.1c0,0.5,0.2,0.9,0.6,1.2c0.4,0.3,0.9,0.4,1.4,0.4c0.5,0,1-0.1,1.3-0.4
			C-131,71.2-130.8,70.9-130.8,70.4z"/>
		<path fill="#3F3F3F" d="M-118.5,69.1c0,1-0.3,1.9-1,2.6s-1.5,1-2.5,1c-1,0-1.8-0.3-2.4-1s-0.9-1.6-0.9-2.6v-1.5
			c0-1,0.3-1.9,0.9-2.6s1.4-1,2.4-1c1,0,1.9,0.3,2.5,1s1,1.6,1,2.6V69.1z M-119.6,67.6c0-0.8-0.2-1.4-0.6-1.9
			c-0.4-0.5-1-0.7-1.7-0.7c-0.7,0-1.2,0.2-1.6,0.7c-0.4,0.5-0.6,1.1-0.6,1.9v1.5c0,0.8,0.2,1.4,0.6,1.9c0.4,0.5,0.9,0.7,1.6,0.7
			c0.7,0,1.3-0.2,1.7-0.7c0.4-0.5,0.6-1.1,0.6-1.9V67.6z"/>
		<path fill="#3F3F3F" d="M-112.6,71.7h4.2v0.9h-5.3v-8.5h1.2V71.7z"/>
		<path fill="#3F3F3F" d="M-98.1,64.1v5.7c0,0.9-0.3,1.7-0.9,2.2c-0.6,0.5-1.4,0.8-2.4,0.8c-0.9,0-1.7-0.3-2.3-0.8
			c-0.6-0.5-0.9-1.3-0.9-2.2v-5.7h1.2v5.7c0,0.7,0.2,1.2,0.6,1.5c0.4,0.4,0.9,0.6,1.4,0.6c0.6,0,1.1-0.2,1.5-0.6
			c0.4-0.4,0.6-0.9,0.6-1.5v-5.7H-98.1z"/>
		<path fill="#3F3F3F" d="M-87.3,65h-2.8v7.6h-1.2V65H-94v-0.9h6.7V65z"/>
		<path fill="#3F3F3F" d="M-81.7,72.6h-1.2v-8.5h1.2V72.6z"/>
		<path fill="#3F3F3F" d="M-70.1,69.1c0,1-0.3,1.9-1,2.6s-1.5,1-2.5,1c-1,0-1.8-0.3-2.4-1s-0.9-1.6-0.9-2.6v-1.5
			c0-1,0.3-1.9,0.9-2.6s1.4-1,2.4-1c1,0,1.9,0.3,2.5,1s1,1.6,1,2.6V69.1z M-71.2,67.6c0-0.8-0.2-1.4-0.6-1.9c-0.4-0.5-1-0.7-1.7-0.7
			c-0.7,0-1.2,0.2-1.6,0.7c-0.4,0.5-0.6,1.1-0.6,1.9v1.5c0,0.8,0.2,1.4,0.6,1.9c0.4,0.5,0.9,0.7,1.6,0.7c0.7,0,1.3-0.2,1.7-0.7
			c0.4-0.5,0.6-1.1,0.6-1.9V67.6z"/>
		<path fill="#3F3F3F" d="M-58.9,72.6h-1.2l-4.1-6.5l0,0v6.5h-1.2v-8.5h1.2l4.1,6.5l0,0v-6.5h1.2V72.6z"/>
		<path fill="#3F3F3F" d="M-49.3,70.4c0-0.4-0.1-0.7-0.4-1c-0.3-0.3-0.8-0.5-1.5-0.7c-0.9-0.2-1.5-0.5-2-0.9
			c-0.5-0.4-0.7-0.9-0.7-1.6c0-0.7,0.3-1.2,0.8-1.7c0.5-0.4,1.2-0.7,2-0.7c0.9,0,1.6,0.3,2.1,0.8c0.5,0.5,0.8,1.1,0.8,1.8l0,0h-1.1
			c0-0.5-0.2-0.9-0.5-1.2c-0.3-0.3-0.8-0.5-1.3-0.5c-0.5,0-1,0.1-1.2,0.4c-0.3,0.3-0.4,0.6-0.4,1c0,0.4,0.2,0.7,0.5,0.9
			c0.3,0.2,0.8,0.5,1.5,0.7c0.9,0.2,1.5,0.6,2,1s0.7,1,0.7,1.6c0,0.7-0.3,1.2-0.8,1.7c-0.5,0.4-1.2,0.6-2.1,0.6
			c-0.8,0-1.5-0.2-2.2-0.7c-0.6-0.5-0.9-1.1-0.9-1.8l0,0h1.1c0,0.5,0.2,0.9,0.6,1.2c0.4,0.3,0.9,0.4,1.4,0.4c0.5,0,1-0.1,1.3-0.4
			C-49.5,71.2-49.3,70.9-49.3,70.4z"/>
	</g>
</g>
<g>
	<circle fill="#FB6200" cx="176.3" cy="9.8" r="6.4"/>
	<path fill="#FB6200" d="M41.4,63.5l-3.6-11.8h-21l-3.6,11.8H2L19.8,6.8h15l17.8,56.7H41.4z M27.4,15.7l-8,26.8h15.7L27.4,15.7z"/>
	<path fill="#FB6200" d="M93.5,35.6v14.1c0,9.7-4.6,14.6-13.7,14.6c-3.6,0-7.3-0.4-11.1-1.1v23.3H58.4V22.1h8.3l1,3.5
		c4.1-2.9,8.4-4.4,13.1-4.4c4.2,0,7.4,1.2,9.5,3.6C92.4,27.3,93.5,30.9,93.5,35.6z M68.7,33.8v20.6c3.4,0.7,6.5,1.1,9.2,1.1
		c1.8,0,3.2-0.4,4-1.3c0.8-0.9,1.2-2.3,1.2-4.2V35.3c0-1.8-0.4-3.1-1.2-4c-0.8-0.9-2.1-1.3-3.9-1.3c-1.6,0-3.3,0.4-5,1.1
		C71.3,31.9,69.9,32.7,68.7,33.8z"/>
	<path fill="#FB6200" d="M136.4,35.6v14.1c0,9.7-4.6,14.6-13.7,14.6c-3.6,0-7.3-0.4-11.1-1.1v23.3h-10.4V22.1h8.3l1,3.5
		c4.1-2.9,8.4-4.4,13.1-4.4c4.2,0,7.4,1.2,9.5,3.6C135.3,27.3,136.4,30.9,136.4,35.6z M111.7,33.8v20.6c3.4,0.7,6.5,1.1,9.2,1.1
		c1.8,0,3.1-0.4,4-1.3c0.8-0.9,1.2-2.3,1.2-4.2V35.3c0-1.8-0.4-3.1-1.2-4c-0.8-0.9-2.1-1.3-3.9-1.3c-1.6,0-3.3,0.4-5,1.1
		C114.2,31.9,112.8,32.7,111.7,33.8z"/>
	<path fill="#FB6200" d="M164.5,21.2l1,9.6c-3.3,1.5-6.9,3.5-10.9,6v26.7h-10.4V22.1h8.7l0.7,4.6c1.5-1,3.2-2,5.3-3.1
		C161,22.5,162.9,21.7,164.5,21.2z"/>
	<path fill="#FB6200" d="M181.6,63.5h-10.4V22.1h10.4V63.5z"/>
	<path fill="#FB6200" d="M201.5,63.5h-10.4V5.2l10.4-1.5V63.5z M214.8,22.1h11.5l-12.2,20.5l12.7,20.9h-11.4L203,42.6L214.8,22.1z"
		/>
	<path fill="#FB6200" d="M296.4,21.2l1,9.6c-3.3,1.5-6.9,3.5-10.9,6v26.7h-10.4V22.1h8.7l0.7,4.6c1.5-1,3.2-2,5.3-3.1
		C292.9,22.5,294.8,21.7,296.4,21.2z"/>
	<path fill="#FB6200" d="M325.2,54.8l1.2,8c-1,0.4-2.5,0.8-4.3,1.1c-1.8,0.3-3.4,0.5-4.8,0.5c-7.6,0-11.4-3.7-11.4-11V30.3h-6.2
		v-8.2h6.2V11.8l10.4-1.4v11.8h10.6l-0.7,8.2h-10V52c0,2.5,1.2,3.7,3.7,3.7C321.4,55.7,323.1,55.4,325.2,54.8z"/>
	<g id="g16523_2_" transform="matrix(2.7633305e-2,0,0,-2.7633305e-2,46.06077,38.939293)">
		<path id="path16525_2_" fill="#3F3F3F" d="M7717.9,568.4h263.6L7822-149.5c-31.1-136.5-52.4-220.2-63.8-251.1
			c41.4-190.4,101.3-285.5,179.9-285.5c93.1,0,141,64.1,144.3,192.4h55.9c-3.2-120-25.2-216.9-66-290.8
			c-40.9-74-94.3-110.9-160.5-110.9c-54.7,0-95.7,22.3-122.5,66.7c-26.9,44.4-55.8,135.5-87,272.9
			c-107.4-226.2-283.1-339.5-527.2-339.5c-166.5,0-298.8,64.8-396.9,194.6c-98.3,129.7-147.4,315.6-147.4,557.5
			c0,237.8,53.8,422.8,161.3,555.2c107.6,132.4,236.8,198.5,387.8,198.5c106.4,0,193.8-37.8,261.9-113.2
			c68.3-75.4,128.7-198.5,181.5-369L7717.9,568.4z M7581.5-39.5c-48.6,166.4-102.9,296.5-162.9,390
			c-59.9,93.6-131.7,140.4-215.6,140.4c-189.2,0-283.7-221.2-283.7-663.7c0-419.9,90.5-629.7,271.4-629.7
			c157.1,0,273.4,185,348.8,555.2L7581.5-39.5z"/>
	</g>
	<g>
		<path fill="#3F3F3F" d="M116.3,86.5V75.2h3.6c1.5,0,2.7,0.5,3.6,1.4c0.9,0.9,1.4,2.1,1.4,3.5v1.6c0,1.5-0.5,2.6-1.4,3.5
			c-0.9,0.9-2.1,1.4-3.6,1.4H116.3z M117.8,76.4v9h2c1.1,0,1.9-0.3,2.5-1c0.6-0.7,0.9-1.6,0.9-2.7v-1.6c0-1.1-0.3-2-0.9-2.7
			c-0.6-0.7-1.4-1-2.5-1H117.8z"/>
		<path fill="#3F3F3F" d="M133,86.5h-1.5V75.2h1.5V86.5z"/>
		<path fill="#3F3F3F" d="M148.1,85c-0.3,0.4-0.7,0.8-1.4,1.2c-0.7,0.4-1.5,0.5-2.6,0.5c-1.3,0-2.4-0.4-3.3-1.3
			c-0.9-0.9-1.3-2-1.3-3.4v-2.3c0-1.4,0.4-2.5,1.2-3.4c0.8-0.9,1.9-1.3,3.2-1.3c1.3,0,2.3,0.3,3,1c0.7,0.7,1.1,1.5,1.1,2.6l0,0h-1.5
			c0-0.7-0.2-1.3-0.7-1.7c-0.4-0.5-1.1-0.7-1.9-0.7c-0.9,0-1.6,0.3-2.1,1c-0.5,0.7-0.8,1.5-0.8,2.5V82c0,1,0.3,1.8,0.8,2.5
			c0.6,0.7,1.3,1,2.2,1c0.7,0,1.2-0.1,1.6-0.3c0.4-0.2,0.7-0.4,0.9-0.6v-2.6h-2.6v-1.2h4.1V85z"/>
		<path fill="#3F3F3F" d="M156.5,86.5H155V75.2h1.5V86.5z"/>
		<path fill="#3F3F3F" d="M171.2,76.4h-3.8v10.2h-1.5V76.4h-3.7v-1.2h9V76.4z"/>
		<path fill="#3F3F3F" d="M182.2,83.6h-4.3l-1,2.9h-1.6l4.1-11.4h1.3l4,11.4h-1.6L182.2,83.6z M178.3,82.3h3.4l-1.7-4.9h0
			L178.3,82.3z"/>
		<path fill="#3F3F3F" d="M192,85.3h5.6v1.2h-7.1V75.2h1.5V85.3z"/>
		<path fill="#3F3F3F" d="M217.5,83.7c0-0.5-0.2-1-0.6-1.3c-0.4-0.3-1-0.6-2-0.9c-1.2-0.3-2.1-0.7-2.7-1.3c-0.7-0.6-1-1.3-1-2.1
			c0-0.9,0.3-1.6,1-2.2c0.7-0.6,1.6-0.9,2.7-0.9c1.2,0,2.2,0.3,2.9,1c0.7,0.7,1.1,1.5,1,2.4l0,0h-1.5c0-0.6-0.2-1.2-0.7-1.6
			c-0.5-0.4-1-0.6-1.7-0.6c-0.7,0-1.3,0.2-1.7,0.5c-0.4,0.3-0.6,0.8-0.6,1.4c0,0.5,0.2,0.9,0.6,1.2c0.4,0.3,1.1,0.6,2,0.9
			c1.1,0.3,2,0.7,2.6,1.3c0.6,0.6,0.9,1.3,0.9,2.1c0,0.9-0.4,1.7-1.1,2.2c-0.7,0.6-1.7,0.8-2.8,0.8c-1.1,0-2.1-0.3-2.9-0.9
			c-0.8-0.6-1.3-1.4-1.2-2.5l0,0h1.5c0,0.7,0.3,1.3,0.8,1.7c0.5,0.4,1.2,0.6,1.8,0.6c0.7,0,1.3-0.2,1.7-0.5
			C217.3,84.7,217.5,84.2,217.5,83.7z"/>
		<path fill="#3F3F3F" d="M234.1,81.9c0,1.4-0.4,2.5-1.3,3.5c-0.9,0.9-2,1.4-3.4,1.4c-1.3,0-2.4-0.5-3.2-1.4
			c-0.8-0.9-1.2-2.1-1.2-3.5v-2c0-1.4,0.4-2.5,1.2-3.5c0.8-0.9,1.9-1.4,3.2-1.4c1.4,0,2.5,0.5,3.4,1.4c0.9,0.9,1.3,2.1,1.3,3.5V81.9
			z M232.5,79.8c0-1-0.3-1.9-0.8-2.6c-0.6-0.7-1.3-1-2.3-1c-0.9,0-1.6,0.3-2.1,1c-0.5,0.7-0.8,1.5-0.8,2.6v2c0,1.1,0.3,1.9,0.8,2.6
			c0.5,0.7,1.3,1,2.1,1c1,0,1.7-0.3,2.3-1c0.6-0.7,0.8-1.5,0.8-2.6V79.8z"/>
		<path fill="#3F3F3F" d="M241.9,85.3h5.6v1.2h-7.1V75.2h1.5V85.3z"/>
		<path fill="#3F3F3F" d="M261.3,75.2v7.6c0,1.3-0.4,2.2-1.2,2.9c-0.8,0.7-1.9,1.1-3.1,1.1c-1.2,0-2.2-0.4-3-1.1
			c-0.8-0.7-1.2-1.7-1.2-2.9v-7.6h1.5v7.6c0,0.9,0.2,1.6,0.7,2c0.5,0.5,1.1,0.7,1.9,0.7c0.8,0,1.5-0.2,2-0.7c0.5-0.5,0.8-1.2,0.8-2
			v-7.6H261.3z"/>
		<path fill="#3F3F3F" d="M275.8,76.4H272v10.2h-1.5V76.4h-3.7v-1.2h9V76.4z"/>
		<path fill="#3F3F3F" d="M283.2,86.5h-1.5V75.2h1.5V86.5z"/>
		<path fill="#3F3F3F" d="M298.8,81.9c0,1.4-0.4,2.5-1.3,3.5c-0.9,0.9-2,1.4-3.4,1.4c-1.3,0-2.4-0.5-3.2-1.4
			c-0.8-0.9-1.2-2.1-1.2-3.5v-2c0-1.4,0.4-2.5,1.2-3.5c0.8-0.9,1.9-1.4,3.2-1.4c1.4,0,2.5,0.5,3.4,1.4c0.9,0.9,1.3,2.1,1.3,3.5V81.9
			z M297.3,79.8c0-1-0.3-1.9-0.8-2.6c-0.6-0.7-1.3-1-2.3-1c-0.9,0-1.6,0.3-2.1,1c-0.5,0.7-0.8,1.5-0.8,2.6v2c0,1.1,0.3,1.9,0.8,2.6
			c0.5,0.7,1.3,1,2.1,1c1,0,1.7-0.3,2.3-1c0.6-0.7,0.8-1.5,0.8-2.6V79.8z"/>
		<path fill="#3F3F3F" d="M313.7,86.5h-1.5l-5.5-8.7l0,0v8.7h-1.5V75.2h1.5l5.5,8.7l0,0v-8.7h1.5V86.5z"/>
		<path fill="#3F3F3F" d="M326.6,83.7c0-0.5-0.2-1-0.6-1.3c-0.4-0.3-1-0.6-2-0.9c-1.2-0.3-2.1-0.7-2.7-1.3c-0.7-0.6-1-1.3-1-2.1
			c0-0.9,0.3-1.6,1-2.2c0.7-0.6,1.6-0.9,2.7-0.9c1.2,0,2.2,0.3,2.9,1c0.7,0.7,1.1,1.5,1,2.4l0,0h-1.5c0-0.6-0.2-1.2-0.7-1.6
			s-1-0.6-1.7-0.6c-0.7,0-1.3,0.2-1.7,0.5c-0.4,0.3-0.6,0.8-0.6,1.4c0,0.5,0.2,0.9,0.6,1.2c0.4,0.3,1.1,0.6,2,0.9
			c1.1,0.3,2,0.7,2.6,1.3c0.6,0.6,0.9,1.3,0.9,2.1c0,0.9-0.4,1.7-1.1,2.2c-0.7,0.6-1.7,0.8-2.8,0.8c-1.1,0-2.1-0.3-2.9-0.9
			c-0.8-0.6-1.3-1.4-1.2-2.5l0,0h1.5c0,0.7,0.3,1.3,0.8,1.7c0.5,0.4,1.2,0.6,1.8,0.6c0.7,0,1.3-0.2,1.7-0.5
			C326.3,84.7,326.6,84.2,326.6,83.7z"/>
	</g>
</g>
</svg>
